HIERARCHY
ROOT hip
{
  OFFSET 0 0 0
  CHANNELS 6 Xposition Yposition Zposition Zrotation Yrotation Xrotation
  JOINT abdomen
  {
    OFFSET 0 20.6881 -0.73152
    CHANNELS 3 Zrotation Xrotation Yrotation
    JOINT chest
    {
      OFFSET 0 11.7043 -0.48768
      CHANNELS 3 Zrotation Xrotation Yrotation
      JOINT neck
      {
        OFFSET 0 22.1894 -2.19456
        CHANNELS 3 Zrotation Xrotation Yrotation
        JOINT head
        {
          OFFSET -0.24384 7.07133 1.2192
          CHANNELS 3 Zrotation Xrotation Yrotation
          JOINT leftEye
          {
            OFFSET 4.14528 8.04674 8.04672
            CHANNELS 3 Zrotation Xrotation Yrotation
            End Site
            {
              OFFSET 1 0 0
            }
          }
          JOINT rightEye
          {
            OFFSET -3.6576 8.04674 8.04672
            CHANNELS 3 Zrotation Xrotation Yrotation
            End Site
            {
              OFFSET 1 0 0
            }
          }
        }
      }
      JOINT rCollar
      {
        OFFSET -2.68224 19.2634 -4.8768
        CHANNELS 3 Zrotation Xrotation Yrotation
        JOINT rShldr
        {
          OFFSET -8.77824 -1.95073 1.46304
          CHANNELS 3 Zrotation Xrotation Yrotation
          JOINT rForeArm
          {
            OFFSET -28.1742 -1.7115 0.48768
            CHANNELS 3 Zrotation Xrotation Yrotation
            JOINT rHand
            {
              OFFSET -22.5879 0.773209 7.07136
              CHANNELS 3 Zrotation Xrotation Yrotation
              JOINT rThumb1
              {
                OFFSET -1.2192 -0.487915 3.41376
                CHANNELS 3 Zrotation Xrotation Yrotation
                JOINT rThumb2
                {
                  OFFSET -3.37035 -0.52449 3.41376
                  CHANNELS 3 Zrotation Xrotation Yrotation
                  End Site
                  {
                    OFFSET -1.78271 -1.18214 1.43049
                  }
                }
              }
              JOINT rIndex1
              {
                OFFSET -7.75947 0.938293 5.60832
                CHANNELS 3 Zrotation Xrotation Yrotation
                JOINT rIndex2
                {
                  OFFSET -2.54057 -0.884171 1.56538
                  CHANNELS 3 Zrotation Xrotation Yrotation
                  End Site
                  {
                    OFFSET -1.62519 -0.234802 1.16502
                  }
                }
              }
              JOINT rMid1
              {
                OFFSET -8.24714 1.18213 3.41376
                CHANNELS 3 Zrotation Xrotation Yrotation
                JOINT rMid2
                {
                  OFFSET -3.10165 -0.590103 1.0647
                  CHANNELS 3 Zrotation Xrotation Yrotation
                  End Site
                  {
                    OFFSET -2.48547 -0.328903 0.83742
                  }
                }
              }
              JOINT rRing1
              {
                OFFSET -8.82822 0.546677 1.51678
                CHANNELS 3 Zrotation Xrotation Yrotation
                JOINT rRing2
                {
                  OFFSET -2.60934 -0.819778 -0.0198488
                  CHANNELS 3 Zrotation Xrotation Yrotation
                  End Site
                  {
                    OFFSET -2.33842 -0.294052 0.168128
                  }
                }
              }
              JOINT rPinky1
              {
                OFFSET -8.27202 -0.0477905 -0.4584
                CHANNELS 3 Zrotation Xrotation Yrotation
                JOINT rPinky2
                {
                  OFFSET -1.82734 -0.647385 -0.700984
                  CHANNELS 3 Zrotation Xrotation Yrotation
                  End Site
                  {
                    OFFSET -1.69225 -0.51767 -0.607171
                  }
                }
              }
            }
          }
        }
      }
      JOINT lCollar
      {
        OFFSET 2.68224 19.2634 -4.8768
        CHANNELS 3 Zrotation Xrotation Yrotation
        JOINT lShldr
        {
          OFFSET 8.77824 -1.95073 1.46304
          CHANNELS 3 Zrotation Xrotation Yrotation
          JOINT lForeArm
          {
            OFFSET 28.1742 -1.7115 0.48768
            CHANNELS 3 Zrotation Xrotation Yrotation
            JOINT lHand
            {
              OFFSET 22.5879 0.773209 7.07136
              CHANNELS 3 Zrotation Xrotation Yrotation
              JOINT lThumb1
              {
                OFFSET 1.2192 -0.487915 3.41376
                CHANNELS 3 Zrotation Xrotation Yrotation
                JOINT lThumb2
                {
                  OFFSET 3.37035 -0.52449 3.41376
                  CHANNELS 3 Zrotation Xrotation Yrotation
                  End Site
                  {
                    OFFSET 1.78271 -1.18214 1.43049
                  }
                }
              }
              JOINT lIndex1
              {
                OFFSET 7.75947 0.938293 5.60832
                CHANNELS 3 Zrotation Xrotation Yrotation
                JOINT lIndex2
                {
                  OFFSET 2.54057 -0.884171 1.56538
                  CHANNELS 3 Zrotation Xrotation Yrotation
                  End Site
                  {
                    OFFSET 1.62519 -0.234802 1.16502
                  }
                }
              }
              JOINT lMid1
              {
                OFFSET 8.24714 1.18213 3.41376
                CHANNELS 3 Zrotation Xrotation Yrotation
                JOINT lMid2
                {
                  OFFSET 3.10165 -0.590103 1.0647
                  CHANNELS 3 Zrotation Xrotation Yrotation
                  End Site
                  {
                    OFFSET 2.48547 -0.328903 0.83742
                  }
                }
              }
              JOINT lRing1
              {
                OFFSET 8.82822 0.546677 1.51678
                CHANNELS 3 Zrotation Xrotation Yrotation
                JOINT lRing2
                {
                  OFFSET 2.60934 -0.819778 -0.0198488
                  CHANNELS 3 Zrotation Xrotation Yrotation
                  End Site
                  {
                    OFFSET 2.33842 -0.294052 0.168128
                  }
                }
              }
              JOINT lPinky1
              {
                OFFSET 8.27202 -0.0477905 -0.4584
                CHANNELS 3 Zrotation Xrotation Yrotation
                JOINT lPinky2
                {
                  OFFSET 1.82734 -0.647385 -0.700984
                  CHANNELS 3 Zrotation Xrotation Yrotation
                  End Site
                  {
                    OFFSET 1.69225 -0.51767 -0.607171
                  }
                }
              }
            }
          }
        }
      }
    }
  }
  JOINT rButtock
  {
    OFFSET -8.77824 4.35084 1.2192
    CHANNELS 3 Zrotation Xrotation Yrotation
    JOINT rThigh
    {
      OFFSET 0 -1.70687 -2.19456
      CHANNELS 3 Zrotation Xrotation Yrotation
      JOINT rShin
      {
        OFFSET 0 -36.8199 0.73152
        CHANNELS 3 Zrotation Xrotation Yrotation
        JOINT rFoot
        {
          OFFSET 0.73152 -45.1104 -5.12064
          CHANNELS 3 Zrotation Xrotation Yrotation
          End Site
          {
            OFFSET -1.1221 -3.69964 12.103
          }
        }
      }
    }
  }
  JOINT lButtock
  {
    OFFSET 8.77824 4.35084 1.2192
    CHANNELS 3 Zrotation Xrotation Yrotation
    JOINT lThigh
    {
      OFFSET 0 -1.70687 -2.19456
      CHANNELS 3 Zrotation Xrotation Yrotation
      JOINT lShin
      {
        OFFSET 0 -36.8199 0.73152
        CHANNELS 3 Zrotation Xrotation Yrotation
        JOINT lFoot
        {
          OFFSET -0.73152 -45.1104 -5.12064
          CHANNELS 3 Zrotation Xrotation Yrotation
          End Site
          {
            OFFSET 1.1221 -3.69964 12.103
          }
        }
      }
    }
  }
}
MOTION
Frames:	6
Frame Time:	0.00833333
7.29882 82.8758 -125.649 5.4293 10.284 3.5386 -7.46243 6.1929 -8.00138 4.4002 -6.34036 -2.12708 -3.0625 -0.598793 -0.286616 0.89917 -8.27155 0.381863 -0.0 0.0 0.0 -0.0 0.0 0.0 -1.13797e-13 2.82253e-14 -5.69866e-13 76.7388 0.199452 3.75827 -13.5732 -6.61516 24.6993 -0.182369 -12.0794 -1.72351 1.80062e-09 -5.77821e-09 -3.09307e-09 3.14246e-09 -1.0031e-08 -5.34148e-09 1.80062e-09 -5.7782e-09 -3.09307e-09 7.73091 5.47488 0.417314 1.80062e-09 -5.77821e-09 -3.09307e-09 2.90554 0.965183 0.102902 1.80063e-09 -5.77821e-09 -3.09307e-09 10.2786 0.731801 0.0259123 1.80061e-09 -5.77821e-09 -3.09306e-09 2.22167 -0.733487 -0.20892 -1.14068e-13 2.82278e-14 -5.70214e-13 -67.9689 36.2362 -17.64 17.5316 -10.1918 -32.9778 0.0147402 3.46411 -0.487449 2.6252e-09 7.19903e-09 1.27076e-09 4.54e-09 1.24348e-08 2.18811e-09 2.6252e-09 7.19904e-09 1.27076e-09 -7.73091 5.47488 -0.417314 2.6252e-09 7.19903e-09 1.27076e-09 -2.90554 0.965183 -0.102902 2.6252e-09 7.19903e-09 1.27076e-09 -10.2786 0.731801 -0.0259123 2.62521e-09 7.19903e-09 1.27076e-09 -2.22167 -0.733487 0.20892 -2.03217e-16 0.0 -3.88251e-19 -10.0733 -36.7079 -1.182 -0.0494664 16.5222 0.158797 -5.02322 -9.86003 -17.9755 2.03217e-16 0.0 3.88251e-19 -10.8602 8.4992 -4.02774 0.0131642 5.5669 -0.0412927 -1.50119 -11.9471 -7.76574
7.30798 82.7822 -125.13 5.593 10.2075 3.8888 -7.35403 6.19541 -8.1218 4.33957 -6.42018 -2.15991 -3.02071 -0.686071 -0.248527 0.913518 -8.14269 0.449986 -0.0 0.0 0.0 -0.0 0.0 0.0 -1.09868e-13 8.99825e-14 -4.61816e-13 76.78 0.0961471 3.71939 -13.5453 -6.5934 24.6435 -0.17914 -11.9761 -1.70831 1.37153e-09 -4.61652e-09 -2.88399e-09 2.39758e-09 -8.01778e-09 -4.98126e-09 1.37154e-09 -4.61651e-09 -2.88399e-09 7.73091 5.47488 0.417314 1.37153e-09 -4.61651e-09 -2.88398e-09 2.90554 0.965183 0.102902 1.37154e-09 -4.61651e-09 -2.88399e-09 10.2786 0.731801 0.0259123 1.37153e-09 -4.61651e-09 -2.88398e-09 2.22167 -0.733487 -0.20892 -1.10117e-13 8.99843e-14 -4.62154e-13 -68.0122 36.185 -17.5477 17.4242 -10.0814 -32.7397 0.0195285 3.96852 -0.558645 2.40792e-09 6.59617e-09 1.16125e-09 4.16534e-09 1.13938e-08 1.99854e-09 2.40792e-09 6.59618e-09 1.16125e-09 -7.73091 5.47488 -0.417314 2.40792e-09 6.59617e-09 1.16125e-09 -2.90554 0.965183 -0.102902 2.40791e-09 6.59617e-09 1.16125e-09 -10.2786 0.731801 -0.0259123 2.40793e-09 6.59617e-09 1.16125e-09 -2.22167 -0.733487 0.20892 -2.03217e-16 0.0 -3.88251e-19 -9.99678 -36.8091 -1.8745 -0.0521807 16.7548 0.156355 -4.87681 -9.46803 -17.807 2.03217e-16 0.0 3.88251e-19 -10.7366 8.73185 -4.12001 0.012622 5.62773 -0.0462908 -1.49904 -12.0293 -7.73726
7.22112 82.692 -124.492 5.2855 10.0939 3.8606 -7.11161 6.21178 -8.19702 4.23875 -6.48168 -2.18058 -2.92144 -0.835771 -0.191395 0.762333 -7.96959 0.530005 -0.0 0.0 0.0 -0.0 0.0 0.0 -9.62688e-14 1.94485e-13 -2.35439e-13 76.8236 -0.098381 3.74169 -13.4833 -6.54513 24.5199 -0.174027 -11.8084 -1.68368 6.09728e-10 -2.36102e-09 -2.3523e-09 1.07388e-09 -4.10787e-09 -4.06401e-09 6.09733e-10 -2.36102e-09 -2.3523e-09 7.73091 5.47488 0.417314 6.09726e-10 -2.36102e-09 -2.35229e-09 2.90554 0.965183 0.102902 6.09734e-10 -2.36102e-09 -2.35229e-09 10.2786 0.731801 0.0259123 6.0972e-10 -2.36102e-09 -2.35228e-09 2.22167 -0.733487 -0.20892 -9.64469e-14 1.94486e-13 -2.35746e-13 -68.0396 36.0789 -17.5062 17.2798 -9.93286 -32.4234 0.024445 4.44237 -0.62561 1.9259e-09 5.26614e-09 8.96563e-10 3.33366e-09 9.09775e-09 1.54124e-09 1.9259e-09 5.26615e-09 8.9657e-10 -7.73091 5.47488 -0.417314 1.9259e-09 5.26615e-09 8.96563e-10 -2.90554 0.965183 -0.102902 1.92589e-09 5.26614e-09 8.96566e-10 -10.2786 0.731801 -0.0259123 1.92591e-09 5.26614e-09 8.96561e-10 -2.22167 -0.733487 0.20892 -2.03217e-16 0.0 -3.88251e-19 -9.78021 -36.8701 -2.63219 -0.0555389 17.0398 0.149012 -4.68343 -8.95339 -17.5899 2.03217e-16 0.0 3.88251e-19 -10.5266 8.8359 -4.16736 0.0130059 5.96118 -0.0540052 -1.5086 -12.2547 -7.67629
7.25728 82.6443 -123.842 5.5369 10.1776 3.9133 -6.848 6.23961 -8.26611 4.13716 -6.5121 -2.20041 -2.80736 -1.01968 -0.129224 0.553125 -7.80081 0.613128 -0.0 0.0 0.0 -0.0 0.0 0.0 -7.72712e-14 2.91397e-13 -5.39475e-15 76.863 -0.319574 3.79078 -13.4074 -6.48617 24.3691 -0.16886 -11.6337 -1.65808 -1.42377e-10 -1.23352e-10 -1.78807e-09 -2.33155e-10 -2.28603e-10 -3.09058e-09 -1.42369e-10 -1.23349e-10 -1.78808e-09 7.73091 5.47488 0.417314 -1.4238e-10 -1.23351e-10 -1.78806e-09 2.90554 0.965183 0.102902 -1.42371e-10 -1.23351e-10 -1.78807e-09 10.2786 0.731801 0.0259123 -1.42386e-10 -1.2335e-10 -1.78806e-09 2.22167 -0.733487 -0.20892 -7.73721e-14 2.91396e-13 -5.6669e-15 -68.0948 35.8946 -17.4755 17.1091 -9.75945 -32.052 0.0296559 4.90353 -0.690859 1.42033e-09 3.8314e-09 6.01223e-10 2.46118e-09 6.62064e-09 1.03096e-09 1.42033e-09 3.83141e-09 6.01229e-10 -7.73091 5.47488 -0.417314 1.42034e-09 3.83141e-09 6.01222e-10 -2.90554 0.965183 -0.102902 1.42033e-09 3.8314e-09 6.01224e-10 -10.2786 0.731801 -0.0259123 1.42034e-09 3.8314e-09 6.01218e-10 -2.22167 -0.733487 0.20892 -2.03217e-16 0.0 -3.88251e-19 -9.52409 -36.8781 -3.35264 -0.0592379 17.3812 0.141808 -4.47415 -8.44737 -17.2829 2.03217e-16 0.0 3.88251e-19 -10.308 8.91639 -4.20453 0.0137231 6.38136 -0.0630453 -1.51865 -12.4859 -7.61626
7.10875 82.546 -123.225 5.0522 10.2654 4.0197 -6.676 6.27643 -8.36813 4.07417 -6.49873 -2.2307 -2.7214 -1.2096 -0.0760169 0.393772 -7.68492 0.690611 -0.0 0.0 0.0 -0.0 0.0 0.0 -5.71475e-14 3.30381e-13 1.13655e-13 76.8911 -0.502908 3.83225 -13.338 -6.43246 24.2314 -0.165283 -11.5097 -1.63992 -5.42361e-10 9.84862e-10 -1.4814e-09 -9.28004e-10 1.69268e-09 -2.5618e-09 -5.42351e-10 9.84864e-10 -1.48141e-09 7.73091 5.47488 0.417314 -5.42363e-10 9.84863e-10 -1.48139e-09 2.90554 0.965183 0.102902 -5.42355e-10 9.84862e-10 -1.48139e-09 10.2786 0.731801 0.0259123 -5.42369e-10 9.84864e-10 -1.48138e-09 2.22167 -0.733487 -0.20892 -5.72071e-14 3.30379e-13 1.13407e-13 -68.221 35.6086 -17.416 16.9238 -9.57463 -31.6482 0.0354967 5.36987 -0.756925 1.13239e-09 2.91438e-09 3.99742e-10 1.96409e-09 5.0365e-09 6.82477e-10 1.13239e-09 2.91439e-09 3.99748e-10 -7.73091 5.47488 -0.417314 1.13239e-09 2.91439e-09 3.99742e-10 -2.90554 0.965183 -0.102902 1.13239e-09 2.91438e-09 3.99742e-10 -10.2786 0.731801 -0.0259123 1.1324e-09 2.91438e-09 3.99735e-10 -2.22167 -0.733487 0.20892 -2.03217e-16 0.0 -3.88251e-19 -9.328 -36.823 -3.93298 -0.0630896 17.7831 0.139817 -4.27894 -8.08136 -16.8429 2.03217e-16 0.0 3.88251e-19 -10.1579 9.07828 -4.26641 0.0140557 6.70239 -0.0720042 -1.51895 -12.5853 -7.59057
6.83891 82.5138 -122.639 4.3649 10.2244 4.0396 -6.63891 6.3551 -8.5214 4.06483 -6.41542 -2.27803 -2.69016 -1.43728 -0.0393061 0.325571 -7.66048 0.75966 -0.0 0.0 0.0 -0.0 0.0 0.0 -3.70682e-14 2.76529e-13 6.67427e-14 76.898 -0.626575 3.89329 -13.2857 -6.39203 24.1279 -0.164097 -11.4677 -1.63378 -3.56239e-10 3.32486e-10 -1.57407e-09 -6.04259e-10 5.61977e-10 -2.72223e-09 -3.5623e-10 3.32487e-10 -1.57407e-09 7.73091 5.47488 0.417314 -3.56241e-10 3.32486e-10 -1.57406e-09 2.90554 0.965183 0.102902 -3.56232e-10 3.32486e-10 -1.57406e-09 10.2786 0.731801 0.0259123 -3.56246e-10 3.32488e-10 -1.57405e-09 2.22167 -0.733487 -0.20892 -3.71446e-14 2.76527e-13 6.65012e-14 -68.42 35.1949 -17.3543 16.7275 -9.38123 -31.2236 0.0420061 5.83149 -0.822444 1.20405e-09 2.83172e-09 3.50995e-10 2.08754e-09 4.89139e-09 5.96996e-10 1.20405e-09 2.83173e-09 3.51002e-10 -7.73091 5.47488 -0.417314 1.20405e-09 2.83173e-09 3.50996e-10 -2.90554 0.965183 -0.102902 1.20405e-09 2.83172e-09 3.50995e-10 -10.2786 0.731801 -0.0259123 1.20406e-09 2.83172e-09 3.50988e-10 -2.22167 -0.733487 0.20892 -2.03217e-16 0.0 -3.88251e-19 -9.25758 -36.7031 -4.38763 -0.0676089 18.306 0.146487 -4.08516 -7.93095 -16.1199 2.03217e-16 0.0 3.88251e-19 -10.1249 9.37996 -4.3545 0.0135044 6.84974 -0.0813234 -1.5054 -12.5098 -7.60822
